<?xml version="1.0" encoding="utf-8"?>
<!-- Generator: Adobe Illustrator 18.1.1, SVG Export Plug-In . SVG Version: 6.00 Build 0)  -->
<!DOCTYPE svg PUBLIC "-//W3C//DTD SVG 1.1//EN" "http://www.w3.org/Graphics/SVG/1.1/DTD/svg11.dtd">
<svg version="1.1" id="Layer_1" xmlns="http://www.w3.org/2000/svg" xmlns:xlink="http://www.w3.org/1999/xlink" x="0px" y="0px"
	 viewBox="0 0 960 560" enable-background="new 0 0 960 560" xml:space="preserve">
<g>
	<path fill="#078374" d="M370.6,174.2c0-10.3-1.4-18.6-4.3-24.9c-2.9-6.3-9.4-9.4-19.7-9.4h-3.4v-10.3h41.2c6,0,10.9,0.7,14.9,2.2
		c4,1.5,7.2,3.9,9.6,7.4c2.4,3.4,4.1,8,5.2,13.7c1,5.7,1.5,12.8,1.5,21.3v65.2l59.4-73.8c3.7-4.8,7.6-9.4,11.8-13.7
		c4.2-4.3,8.9-8.2,13.9-11.5c5-3.3,10.4-6,16.1-7.9c5.7-1.9,12-2.9,18.9-2.9h24v12c-13,0-24.8,1.7-35.4,5
		c-10.5,3.3-19.7,9.8-27.5,19.4l-51.2,63.2l79.3,82.4c4.3,4.8,9,9.3,14.1,13.4c5,4.1,10,7.8,14.8,11.2c4.8,3.3,9.4,6,13.9,8.1
		c4.5,2.1,8.4,3.3,11.8,3.8v8.2c-2.5,0.9-6,1.7-10.5,2.4c-4.5,0.7-9.3,1-14.6,1c-6.4,0-12.8-0.5-19.2-1.5c-6.4-1-13-3.1-19.9-6.2
		c-6.9-3.1-14-7.3-21.3-12.5c-7.3-5.3-15.1-12.2-23.3-20.9l-55.3-57.7v95.4h-44.6L370.6,174.2z"/>
	<path fill="#078374" d="M512.6,224.3H502v-6.1h10.7v-13.7l7.6-9.1h6.1v22.8h18.3v6.1h-18.3v47.2c0,9.1,3.6,13.7,10.7,13.7
		c2.6,0,4.8-0.3,6.5-0.9c1.7-0.6,3.4-1.3,4.9-2.1l1.5,3c-0.8,0.6-1.8,1.3-2.8,2c-1.1,0.7-2.4,1.4-3.9,2c-1.5,0.6-3.3,1.1-5.3,1.5
		c-2,0.4-4.4,0.6-7,0.6c-5.4,0-9.8-1.6-13.2-4.7c-3.4-3.1-5.1-8.2-5.1-15.1V224.3z"/>
	<path fill="#078374" d="M574.9,224.3c1.9-1.9,4.6-3.7,7.9-5.3c3.3-1.6,7.3-2.4,11.9-2.4c3.2,0,6.4,0.4,9.5,1.1
		c3.1,0.8,5.9,2.2,8.3,4.3c2.4,2.1,4.4,4.9,5.9,8.5c1.5,3.6,2.2,8.1,2.2,13.6v45.7h-13.7v-45.7c0-3.8-0.5-7-1.4-9.6
		c-1-2.6-2.2-4.8-3.8-6.4c-1.6-1.6-3.3-2.8-5.3-3.5c-2-0.7-4-1.1-6.2-1.1c-3,0-5.9,0.8-8.5,2.4c-2.6,1.6-4.8,3.5-6.8,5.6v58.2h-13.7
		v-82.2c0-4.6-0.6-8.2-1.9-11c-1.3-2.8-4.2-4.2-8.8-4.2h-3v-3h13.7c2.6,0,4.8,0.2,6.6,0.7c1.8,0.5,3.2,1.4,4.3,2.7
		c1.1,1.4,1.8,3.2,2.2,5.6c0.4,2.4,0.6,5.5,0.6,9.2V224.3z"/>
	<g>
		<path fill="#078374" d="M396,386.5c4.2,0,7.7,0.3,10.6,1c2.9,0.6,5.1,1.7,6.6,3.2c0.7,0.7,1.3,1.5,1.7,2.4
			c0.4,0.9,0.7,1.9,0.9,3.1c0.2,1.2,0.3,2.6,0.3,4.2c0,1.6,0.1,3.5,0.1,5.8h-2.4c-0.3-5.1-1.9-8.8-4.8-11.2
			c-2.9-2.4-6.4-3.6-10.6-3.6c-3,0-5.6,0.6-7.7,1.9c-2.1,1.3-3.9,3-5.3,5.2c-1.4,2.2-2.5,4.8-3.2,7.7c-0.7,3-1,6.2-1,9.6
			s0.3,6.6,1,9.6c0.7,3,1.7,5.5,3.2,7.7c1.4,2.2,3.2,3.9,5.3,5.2c2.1,1.3,4.7,1.9,7.7,1.9c4.2,0,7.6-0.8,10.2-2.5c2.6-1.7,5-4,7-7
			l2.4,1.8c-2.7,4.5-5.8,7.7-9.5,9.6c-3.6,1.9-7.8,2.9-12.5,2.9c-4.4,0-8.3-0.8-11.6-2.3c-3.3-1.5-6-3.6-8.1-6.2
			c-2.1-2.6-3.7-5.7-4.8-9.2c-1.1-3.5-1.6-7.3-1.6-11.4c0-4,0.5-7.8,1.6-11.4c1.1-3.5,2.7-6.6,4.8-9.2c2.1-2.6,4.9-4.7,8.1-6.2
			C387.7,387.3,391.5,386.5,396,386.5z"/>
		<path fill="#078374" d="M427.2,415.7c0-4,0.6-7.8,1.7-11.4c1.1-3.5,2.9-6.6,5.1-9.2c2.3-2.6,5-4.7,8.2-6.2
			c3.2-1.5,6.9-2.3,11.1-2.3c4.1,0,7.8,0.8,11.1,2.3c3.2,1.5,6,3.6,8.3,6.2c2.3,2.6,4,5.7,5.1,9.2c1.1,3.5,1.7,7.3,1.7,11.4
			c0,4-0.6,7.8-1.7,11.4c-1.1,3.5-2.9,6.6-5.1,9.2c-2.3,2.6-5,4.7-8.3,6.2c-3.3,1.5-6.9,2.3-11.1,2.3c-4.2,0-7.9-0.8-11.1-2.3
			c-3.2-1.5-5.9-3.6-8.2-6.2c-2.3-2.6-4-5.7-5.1-9.2C427.8,423.5,427.2,419.7,427.2,415.7z M468.3,415.7c0-3.4-0.4-6.6-1.1-9.6
			c-0.7-3-1.7-5.5-3-7.7c-1.3-2.2-2.9-3.9-4.7-5.2c-1.8-1.3-3.8-1.9-6.1-1.9c-2.2,0-4.2,0.6-6.1,1.9c-1.8,1.3-3.4,3-4.7,5.2
			c-1.3,2.2-2.3,4.8-3,7.7c-0.7,3-1.1,6.2-1.1,9.6s0.4,6.6,1.1,9.6c0.7,3,1.7,5.5,3,7.7c1.3,2.2,2.9,3.9,4.7,5.2
			c1.8,1.3,3.8,1.9,6.1,1.9c2.2,0,4.2-0.6,6.1-1.9c1.8-1.3,3.4-3,4.7-5.2c1.3-2.2,2.3-4.8,3-7.7
			C467.9,422.3,468.3,419.1,468.3,415.7z"/>
		<path fill="#078374" d="M504.6,443.6h-10.7v-64.2c0-3.6-0.5-6.4-1.5-8.6c-1-2.2-3.3-3.3-6.8-3.3h-2.4v-2.4h10.7
			c2.1,0,3.8,0.2,5.2,0.5c1.4,0.4,2.5,1.1,3.3,2.1c0.8,1.1,1.4,2.5,1.7,4.4c0.3,1.9,0.5,4.3,0.5,7.2V443.6z"/>
		<path fill="#078374" d="M519,415.7c0-4,0.6-7.8,1.7-11.4c1.1-3.5,2.9-6.6,5.1-9.2c2.3-2.6,5-4.7,8.2-6.2c3.2-1.5,6.9-2.3,11.1-2.3
			c4.1,0,7.8,0.8,11.1,2.3c3.2,1.5,6,3.6,8.3,6.2c2.3,2.6,4,5.7,5.1,9.2c1.1,3.5,1.7,7.3,1.7,11.4c0,4-0.6,7.8-1.7,11.4
			c-1.1,3.5-2.9,6.6-5.1,9.2c-2.3,2.6-5,4.7-8.3,6.2c-3.3,1.5-6.9,2.3-11.1,2.3c-4.2,0-7.9-0.8-11.1-2.3c-3.2-1.5-5.9-3.6-8.2-6.2
			c-2.3-2.6-4-5.7-5.1-9.2C519.6,423.5,519,419.7,519,415.7z M560,415.7c0-3.4-0.4-6.6-1.1-9.6c-0.7-3-1.7-5.5-3-7.7
			c-1.3-2.2-2.9-3.9-4.7-5.2c-1.8-1.3-3.8-1.9-6.1-1.9c-2.2,0-4.2,0.6-6.1,1.9c-1.8,1.3-3.4,3-4.7,5.2c-1.3,2.2-2.3,4.8-3,7.7
			c-0.7,3-1.1,6.2-1.1,9.6s0.4,6.6,1.1,9.6c0.7,3,1.7,5.5,3,7.7c1.3,2.2,2.9,3.9,4.7,5.2c1.8,1.3,3.8,1.9,6.1,1.9
			c2.2,0,4.2-0.6,6.1-1.9c1.8-1.3,3.4-3,4.7-5.2c1.3-2.2,2.3-4.8,3-7.7C559.7,422.3,560,419.1,560,415.7z"/>
		<path fill="#078374" d="M586.2,402c0-3.6-0.5-6.4-1.5-8.6c-1-2.2-3.3-3.3-6.8-3.3h-1.2v-2.4h9.5c3,0,5.3,0.4,6.8,1.3
			c1.5,0.9,2.6,2.2,3.3,4h0.6c1.2-1.5,3-3,5.3-4.4c2.4-1.4,5.4-2.1,8.9-2.1c1.2,0,2.5,0.1,3.8,0.4c1.3,0.3,2.5,0.7,3.3,1.4
			c0.9,0.6,1.6,1.4,2.3,2.3c0.6,0.9,1.3,1.9,1.9,3.1l-4.8,3.6c-0.9-1.2-2.2-2.1-3.9-2.7c-1.7-0.6-3.6-0.9-5.6-0.9
			c-2.4,0-4.6,0.5-6.5,1.6c-2,1.1-3.6,2.5-4.8,4.3v44h-10.7V402z"/>
	</g>
</g>
</svg>
